<mxfile host="Electron" modified="2024-06-13T09:15:50.627Z" agent="Mozilla/5.0 (X11; Linux x86_64) AppleWebKit/537.36 (KHTML, like Gecko) draw.io/24.5.3 Chrome/124.0.6367.207 Electron/30.0.6 Safari/537.36" etag="D3X57Z0oN-QIZFdKhCv3" version="24.5.3" type="device">
  <diagram name="Page-1" id="RLEKTi60ZdWloyCEpr0X">
    <mxGraphModel dx="2836" dy="1307" grid="1" gridSize="10" guides="1" tooltips="1" connect="1" arrows="1" fold="1" page="1" pageScale="1" pageWidth="850" pageHeight="1100" math="0" shadow="0">
      <root>
        <mxCell id="0" />
        <mxCell id="1" parent="0" />
        <mxCell id="I396d66oS9yia68oeNcV-13" style="edgeStyle=orthogonalEdgeStyle;rounded=0;orthogonalLoop=1;jettySize=auto;html=1;exitX=1;exitY=0.5;exitDx=0;exitDy=0;entryX=0;entryY=0.5;entryDx=0;entryDy=0;" parent="1" source="YeOspxqXJ_cCkqmc0nSE-3" target="I396d66oS9yia68oeNcV-10" edge="1">
          <mxGeometry relative="1" as="geometry">
            <mxPoint x="-359" y="250" as="sourcePoint" />
          </mxGeometry>
        </mxCell>
        <mxCell id="yINQDiisd4i8v6eYMABO-3" style="edgeStyle=orthogonalEdgeStyle;rounded=0;orthogonalLoop=1;jettySize=auto;html=1;exitX=1;exitY=0.5;exitDx=0;exitDy=0;entryX=0;entryY=0.5;entryDx=0;entryDy=0;" edge="1" parent="1" source="I396d66oS9yia68oeNcV-10" target="yINQDiisd4i8v6eYMABO-1">
          <mxGeometry relative="1" as="geometry" />
        </mxCell>
        <mxCell id="I396d66oS9yia68oeNcV-10" value="filter(failure=1)" style="rounded=0;whiteSpace=wrap;html=1;" parent="1" vertex="1">
          <mxGeometry x="-319" y="220" width="90" height="60" as="geometry" />
        </mxCell>
        <mxCell id="I396d66oS9yia68oeNcV-17" style="edgeStyle=orthogonalEdgeStyle;rounded=0;orthogonalLoop=1;jettySize=auto;html=1;exitX=1;exitY=0.5;exitDx=0;exitDy=0;entryX=0;entryY=0.5;entryDx=0;entryDy=0;" parent="1" source="I396d66oS9yia68oeNcV-14" target="YeOspxqXJ_cCkqmc0nSE-10" edge="1">
          <mxGeometry relative="1" as="geometry">
            <mxPoint x="610" y="250" as="targetPoint" />
          </mxGeometry>
        </mxCell>
        <mxCell id="I396d66oS9yia68oeNcV-14" value="approxQuantile(0,25,50,75,100)" style="rounded=0;whiteSpace=wrap;html=1;" parent="1" vertex="1">
          <mxGeometry x="370" y="220" width="180" height="60" as="geometry" />
        </mxCell>
        <mxCell id="I396d66oS9yia68oeNcV-34" value="show" style="ellipse;whiteSpace=wrap;html=1;aspect=fixed;" parent="1" vertex="1">
          <mxGeometry x="730" y="275" width="50" height="50" as="geometry" />
        </mxCell>
        <mxCell id="YeOspxqXJ_cCkqmc0nSE-7" style="edgeStyle=orthogonalEdgeStyle;rounded=0;orthogonalLoop=1;jettySize=auto;html=1;exitX=1;exitY=0.5;exitDx=0;exitDy=0;entryX=0;entryY=0.5;entryDx=0;entryDy=0;" parent="1" source="I396d66oS9yia68oeNcV-39" target="YeOspxqXJ_cCkqmc0nSE-3" edge="1">
          <mxGeometry relative="1" as="geometry" />
        </mxCell>
        <mxCell id="I396d66oS9yia68oeNcV-39" value="read(hdfs_path)" style="rounded=0;whiteSpace=wrap;html=1;" parent="1" vertex="1">
          <mxGeometry x="-619" y="270" width="100" height="60" as="geometry" />
        </mxCell>
        <mxCell id="YeOspxqXJ_cCkqmc0nSE-8" style="edgeStyle=orthogonalEdgeStyle;rounded=0;orthogonalLoop=1;jettySize=auto;html=1;exitX=1;exitY=0.5;exitDx=0;exitDy=0;entryX=0;entryY=0.5;entryDx=0;entryDy=0;" parent="1" source="YeOspxqXJ_cCkqmc0nSE-3" target="YeOspxqXJ_cCkqmc0nSE-4" edge="1">
          <mxGeometry relative="1" as="geometry" />
        </mxCell>
        <mxCell id="YeOspxqXJ_cCkqmc0nSE-3" value="drop(model,vault_id)" style="rounded=0;whiteSpace=wrap;html=1;" parent="1" vertex="1">
          <mxGeometry x="-479" y="270" width="120" height="60" as="geometry" />
        </mxCell>
        <mxCell id="YeOspxqXJ_cCkqmc0nSE-4" value="filter(failure=0)" style="rounded=0;whiteSpace=wrap;html=1;" parent="1" vertex="1">
          <mxGeometry x="-319" y="310" width="90" height="60" as="geometry" />
        </mxCell>
        <mxCell id="YeOspxqXJ_cCkqmc0nSE-11" style="edgeStyle=orthogonalEdgeStyle;rounded=0;orthogonalLoop=1;jettySize=auto;html=1;exitX=1;exitY=0.5;exitDx=0;exitDy=0;entryX=0;entryY=0.5;entryDx=0;entryDy=0;" parent="1" source="YeOspxqXJ_cCkqmc0nSE-5" target="YeOspxqXJ_cCkqmc0nSE-10" edge="1">
          <mxGeometry relative="1" as="geometry" />
        </mxCell>
        <mxCell id="YeOspxqXJ_cCkqmc0nSE-5" value="approxQuantile(0,25,50,75,100)" style="rounded=0;whiteSpace=wrap;html=1;" parent="1" vertex="1">
          <mxGeometry x="370" y="310" width="180" height="60" as="geometry" />
        </mxCell>
        <mxCell id="YeOspxqXJ_cCkqmc0nSE-19" style="edgeStyle=orthogonalEdgeStyle;rounded=0;orthogonalLoop=1;jettySize=auto;html=1;exitX=1;exitY=0.5;exitDx=0;exitDy=0;entryX=0;entryY=0.5;entryDx=0;entryDy=0;" parent="1" source="YeOspxqXJ_cCkqmc0nSE-10" target="I396d66oS9yia68oeNcV-34" edge="1">
          <mxGeometry relative="1" as="geometry" />
        </mxCell>
        <mxCell id="YeOspxqXJ_cCkqmc0nSE-10" value="createDataframe" style="rounded=0;whiteSpace=wrap;html=1;" parent="1" vertex="1">
          <mxGeometry x="590" y="270" width="100" height="60" as="geometry" />
        </mxCell>
        <mxCell id="YeOspxqXJ_cCkqmc0nSE-17" style="edgeStyle=orthogonalEdgeStyle;rounded=0;orthogonalLoop=1;jettySize=auto;html=1;exitX=1;exitY=0.5;exitDx=0;exitDy=0;entryX=0;entryY=0.5;entryDx=0;entryDy=0;" parent="1" source="YeOspxqXJ_cCkqmc0nSE-12" target="YeOspxqXJ_cCkqmc0nSE-10" edge="1">
          <mxGeometry relative="1" as="geometry">
            <Array as="points">
              <mxPoint x="570" y="170" />
              <mxPoint x="570" y="300" />
            </Array>
          </mxGeometry>
        </mxCell>
        <mxCell id="YeOspxqXJ_cCkqmc0nSE-12" value="count" style="rounded=0;whiteSpace=wrap;html=1;" parent="1" vertex="1">
          <mxGeometry x="415" y="140" width="90" height="60" as="geometry" />
        </mxCell>
        <mxCell id="YeOspxqXJ_cCkqmc0nSE-18" style="edgeStyle=orthogonalEdgeStyle;rounded=0;orthogonalLoop=1;jettySize=auto;html=1;exitX=1;exitY=0.5;exitDx=0;exitDy=0;entryX=0;entryY=0.5;entryDx=0;entryDy=0;" parent="1" source="YeOspxqXJ_cCkqmc0nSE-13" target="YeOspxqXJ_cCkqmc0nSE-10" edge="1">
          <mxGeometry relative="1" as="geometry">
            <Array as="points">
              <mxPoint x="570" y="420" />
              <mxPoint x="570" y="300" />
            </Array>
          </mxGeometry>
        </mxCell>
        <mxCell id="YeOspxqXJ_cCkqmc0nSE-13" value="count" style="rounded=0;whiteSpace=wrap;html=1;" parent="1" vertex="1">
          <mxGeometry x="415" y="390" width="90" height="60" as="geometry" />
        </mxCell>
        <mxCell id="gKlMFzUKdv9QcrpE5R9w-10" style="edgeStyle=orthogonalEdgeStyle;rounded=0;orthogonalLoop=1;jettySize=auto;html=1;exitX=1;exitY=0.5;exitDx=0;exitDy=0;entryX=0;entryY=0.5;entryDx=0;entryDy=0;" parent="1" source="gKlMFzUKdv9QcrpE5R9w-1" target="gKlMFzUKdv9QcrpE5R9w-5" edge="1">
          <mxGeometry relative="1" as="geometry" />
        </mxCell>
        <mxCell id="gKlMFzUKdv9QcrpE5R9w-1" value="first(date, s9_power_on_hours)" style="rounded=0;whiteSpace=wrap;html=1;" parent="1" vertex="1">
          <mxGeometry x="-30" y="310" width="180" height="60" as="geometry" />
        </mxCell>
        <mxCell id="gKlMFzUKdv9QcrpE5R9w-9" style="edgeStyle=orthogonalEdgeStyle;rounded=0;orthogonalLoop=1;jettySize=auto;html=1;exitX=1;exitY=0.5;exitDx=0;exitDy=0;entryX=0;entryY=0.5;entryDx=0;entryDy=0;" parent="1" source="gKlMFzUKdv9QcrpE5R9w-2" target="gKlMFzUKdv9QcrpE5R9w-3" edge="1">
          <mxGeometry relative="1" as="geometry" />
        </mxCell>
        <mxCell id="gKlMFzUKdv9QcrpE5R9w-2" value="first(date, s9_power_on_hours)" style="rounded=0;whiteSpace=wrap;html=1;" parent="1" vertex="1">
          <mxGeometry x="-30" y="220" width="180" height="60" as="geometry" />
        </mxCell>
        <mxCell id="gKlMFzUKdv9QcrpE5R9w-13" style="edgeStyle=orthogonalEdgeStyle;rounded=0;orthogonalLoop=1;jettySize=auto;html=1;exitX=1;exitY=0.5;exitDx=0;exitDy=0;entryX=0;entryY=0.5;entryDx=0;entryDy=0;" parent="1" source="gKlMFzUKdv9QcrpE5R9w-3" target="I396d66oS9yia68oeNcV-14" edge="1">
          <mxGeometry relative="1" as="geometry" />
        </mxCell>
        <mxCell id="gKlMFzUKdv9QcrpE5R9w-14" style="edgeStyle=orthogonalEdgeStyle;rounded=0;orthogonalLoop=1;jettySize=auto;html=1;exitX=1;exitY=0.5;exitDx=0;exitDy=0;entryX=0;entryY=0.5;entryDx=0;entryDy=0;" parent="1" source="gKlMFzUKdv9QcrpE5R9w-3" target="YeOspxqXJ_cCkqmc0nSE-12" edge="1">
          <mxGeometry relative="1" as="geometry">
            <Array as="points">
              <mxPoint x="350" y="250" />
              <mxPoint x="350" y="170" />
            </Array>
          </mxGeometry>
        </mxCell>
        <mxCell id="gKlMFzUKdv9QcrpE5R9w-3" value="drop(serial_number,date)" style="rounded=0;whiteSpace=wrap;html=1;" parent="1" vertex="1">
          <mxGeometry x="185" y="220" width="150" height="60" as="geometry" />
        </mxCell>
        <mxCell id="gKlMFzUKdv9QcrpE5R9w-12" style="edgeStyle=orthogonalEdgeStyle;rounded=0;orthogonalLoop=1;jettySize=auto;html=1;exitX=1;exitY=0.5;exitDx=0;exitDy=0;entryX=0;entryY=0.5;entryDx=0;entryDy=0;" parent="1" source="gKlMFzUKdv9QcrpE5R9w-5" target="YeOspxqXJ_cCkqmc0nSE-5" edge="1">
          <mxGeometry relative="1" as="geometry" />
        </mxCell>
        <mxCell id="gKlMFzUKdv9QcrpE5R9w-15" style="edgeStyle=orthogonalEdgeStyle;rounded=0;orthogonalLoop=1;jettySize=auto;html=1;exitX=1;exitY=0.5;exitDx=0;exitDy=0;entryX=0;entryY=0.5;entryDx=0;entryDy=0;" parent="1" source="gKlMFzUKdv9QcrpE5R9w-5" target="YeOspxqXJ_cCkqmc0nSE-13" edge="1">
          <mxGeometry relative="1" as="geometry">
            <Array as="points">
              <mxPoint x="350" y="340" />
              <mxPoint x="350" y="420" />
            </Array>
          </mxGeometry>
        </mxCell>
        <mxCell id="gKlMFzUKdv9QcrpE5R9w-5" value="drop(serial_number,date)" style="rounded=0;whiteSpace=wrap;html=1;" parent="1" vertex="1">
          <mxGeometry x="185" y="310" width="150" height="60" as="geometry" />
        </mxCell>
        <mxCell id="yINQDiisd4i8v6eYMABO-4" style="edgeStyle=orthogonalEdgeStyle;rounded=0;orthogonalLoop=1;jettySize=auto;html=1;exitX=1;exitY=0.5;exitDx=0;exitDy=0;entryX=0;entryY=0.5;entryDx=0;entryDy=0;" edge="1" parent="1" source="yINQDiisd4i8v6eYMABO-1" target="gKlMFzUKdv9QcrpE5R9w-2">
          <mxGeometry relative="1" as="geometry" />
        </mxCell>
        <mxCell id="yINQDiisd4i8v6eYMABO-1" value="group_by(serial_number)" style="rounded=0;whiteSpace=wrap;html=1;" vertex="1" parent="1">
          <mxGeometry x="-200" y="220" width="150" height="60" as="geometry" />
        </mxCell>
        <mxCell id="yINQDiisd4i8v6eYMABO-6" style="edgeStyle=orthogonalEdgeStyle;rounded=0;orthogonalLoop=1;jettySize=auto;html=1;exitX=1;exitY=0.5;exitDx=0;exitDy=0;entryX=0;entryY=0.5;entryDx=0;entryDy=0;" edge="1" parent="1" source="yINQDiisd4i8v6eYMABO-2" target="gKlMFzUKdv9QcrpE5R9w-1">
          <mxGeometry relative="1" as="geometry" />
        </mxCell>
        <mxCell id="yINQDiisd4i8v6eYMABO-2" value="group_by(serial_number)" style="rounded=0;whiteSpace=wrap;html=1;" vertex="1" parent="1">
          <mxGeometry x="-200" y="310" width="150" height="60" as="geometry" />
        </mxCell>
        <mxCell id="yINQDiisd4i8v6eYMABO-5" style="edgeStyle=orthogonalEdgeStyle;rounded=0;orthogonalLoop=1;jettySize=auto;html=1;exitX=1;exitY=0.5;exitDx=0;exitDy=0;entryX=-0.017;entryY=0.504;entryDx=0;entryDy=0;entryPerimeter=0;" edge="1" parent="1" source="YeOspxqXJ_cCkqmc0nSE-4" target="yINQDiisd4i8v6eYMABO-2">
          <mxGeometry relative="1" as="geometry" />
        </mxCell>
      </root>
    </mxGraphModel>
  </diagram>
</mxfile>
